<svg xmlns="http://www.w3.org/2000/svg" viewBox="0 0 100 100" fill="white">
  <!--
    Galaxy IT "G" logo — white on transparent
    Structure: outer C-shaped ring with top-right stem,
    inner rounded-rect counter hole (even-odd cutout).
  -->
  <path fill-rule="evenodd" d="
    M 62 8
    L 62 8
    C 58.5 7 54.5 6.5 50 6.5
    C 26 6.5 6.5 26 6.5 50
    C 6.5 74 26 93.5 50 93.5
    C 74 93.5 93.5 74 93.5 50
    L 93.5 38
    L 76 38
    L 76 50
    C 76 64.4 64.4 76 50 76
    C 35.6 76 24 64.4 24 50
    C 24 35.6 35.6 24 50 24
    C 54 24 57.8 24.8 61 26.2
    L 62 26.2
    L 62 8
    Z
    M 62 38
    L 62 50
    C 62 56.6 56.6 62 50 62
    C 43.4 62 38 56.6 38 50
    C 38 43.4 43.4 38 50 38
    Z
  "/>
</svg>
